<mxfile host="Electron" modified="2023-11-23T18:17:45.432Z" agent="Mozilla/5.0 (Windows NT 10.0; Win64; x64) AppleWebKit/537.36 (KHTML, like Gecko) draw.io/22.0.3 Chrome/114.0.5735.289 Electron/25.8.4 Safari/537.36" etag="LlQqZ2L7_iVWh__91n0z" version="22.0.3" type="device">
  <diagram name="Page-1" id="y2dl278pDtekp6Njh0f6">
    <mxGraphModel dx="1909" dy="2229" grid="1" gridSize="10" guides="1" tooltips="1" connect="1" arrows="1" fold="1" page="1" pageScale="1" pageWidth="850" pageHeight="1100" math="0" shadow="0">
      <root>
        <mxCell id="0" />
        <mxCell id="1" parent="0" />
        <mxCell id="6DLj1aJMSQT2oyNz9FNp-22" value="" style="edgeStyle=orthogonalEdgeStyle;rounded=0;orthogonalLoop=1;jettySize=auto;html=1;" edge="1" parent="1" source="6DLj1aJMSQT2oyNz9FNp-1" target="6DLj1aJMSQT2oyNz9FNp-21">
          <mxGeometry relative="1" as="geometry" />
        </mxCell>
        <mxCell id="6DLj1aJMSQT2oyNz9FNp-1" value="start" style="ellipse;whiteSpace=wrap;html=1;" vertex="1" parent="1">
          <mxGeometry x="10" y="360" width="120" height="80" as="geometry" />
        </mxCell>
        <mxCell id="6DLj1aJMSQT2oyNz9FNp-4" value="" style="edgeStyle=orthogonalEdgeStyle;rounded=0;orthogonalLoop=1;jettySize=auto;html=1;" edge="1" parent="1" source="6DLj1aJMSQT2oyNz9FNp-2" target="6DLj1aJMSQT2oyNz9FNp-3">
          <mxGeometry relative="1" as="geometry" />
        </mxCell>
        <mxCell id="6DLj1aJMSQT2oyNz9FNp-2" value="check(arr,n)" style="shape=parallelogram;perimeter=parallelogramPerimeter;whiteSpace=wrap;html=1;fixedSize=1;" vertex="1" parent="1">
          <mxGeometry x="40" y="50" width="120" height="60" as="geometry" />
        </mxCell>
        <mxCell id="6DLj1aJMSQT2oyNz9FNp-7" value="" style="edgeStyle=orthogonalEdgeStyle;rounded=0;orthogonalLoop=1;jettySize=auto;html=1;" edge="1" parent="1" source="6DLj1aJMSQT2oyNz9FNp-3" target="6DLj1aJMSQT2oyNz9FNp-6">
          <mxGeometry relative="1" as="geometry" />
        </mxCell>
        <mxCell id="6DLj1aJMSQT2oyNz9FNp-3" value="i&amp;lt; n /2" style="rhombus;whiteSpace=wrap;html=1;" vertex="1" parent="1">
          <mxGeometry x="370" y="40" width="80" height="80" as="geometry" />
        </mxCell>
        <mxCell id="6DLj1aJMSQT2oyNz9FNp-5" value="i = 0" style="rounded=0;whiteSpace=wrap;html=1;" vertex="1" parent="1">
          <mxGeometry x="210" y="50" width="120" height="60" as="geometry" />
        </mxCell>
        <mxCell id="6DLj1aJMSQT2oyNz9FNp-11" value="" style="edgeStyle=orthogonalEdgeStyle;rounded=0;orthogonalLoop=1;jettySize=auto;html=1;" edge="1" parent="1" source="6DLj1aJMSQT2oyNz9FNp-6" target="6DLj1aJMSQT2oyNz9FNp-10">
          <mxGeometry relative="1" as="geometry">
            <Array as="points">
              <mxPoint x="620" y="210" />
            </Array>
          </mxGeometry>
        </mxCell>
        <mxCell id="6DLj1aJMSQT2oyNz9FNp-15" value="" style="edgeStyle=orthogonalEdgeStyle;rounded=0;orthogonalLoop=1;jettySize=auto;html=1;" edge="1" parent="1" source="6DLj1aJMSQT2oyNz9FNp-6" target="6DLj1aJMSQT2oyNz9FNp-14">
          <mxGeometry relative="1" as="geometry" />
        </mxCell>
        <mxCell id="6DLj1aJMSQT2oyNz9FNp-6" value="a[i] != a[n-i-1]" style="rhombus;whiteSpace=wrap;html=1;" vertex="1" parent="1">
          <mxGeometry x="530" y="40" width="180" height="80" as="geometry" />
        </mxCell>
        <mxCell id="6DLj1aJMSQT2oyNz9FNp-10" value="return false" style="shape=parallelogram;perimeter=parallelogramPerimeter;whiteSpace=wrap;html=1;fixedSize=1;" vertex="1" parent="1">
          <mxGeometry x="820" y="180" width="120" height="60" as="geometry" />
        </mxCell>
        <mxCell id="6DLj1aJMSQT2oyNz9FNp-13" value="false" style="text;html=1;strokeColor=none;fillColor=none;align=center;verticalAlign=middle;whiteSpace=wrap;rounded=0;" vertex="1" parent="1">
          <mxGeometry x="720" y="170" width="60" height="30" as="geometry" />
        </mxCell>
        <mxCell id="6DLj1aJMSQT2oyNz9FNp-16" style="edgeStyle=orthogonalEdgeStyle;rounded=0;orthogonalLoop=1;jettySize=auto;html=1;entryX=0.5;entryY=0;entryDx=0;entryDy=0;" edge="1" parent="1" source="6DLj1aJMSQT2oyNz9FNp-14" target="6DLj1aJMSQT2oyNz9FNp-3">
          <mxGeometry relative="1" as="geometry">
            <Array as="points">
              <mxPoint x="880" y="-40" />
              <mxPoint x="410" y="-40" />
            </Array>
          </mxGeometry>
        </mxCell>
        <mxCell id="6DLj1aJMSQT2oyNz9FNp-14" value="i++" style="whiteSpace=wrap;html=1;" vertex="1" parent="1">
          <mxGeometry x="820" y="50" width="120" height="60" as="geometry" />
        </mxCell>
        <mxCell id="6DLj1aJMSQT2oyNz9FNp-17" value="true" style="text;html=1;strokeColor=none;fillColor=none;align=center;verticalAlign=middle;whiteSpace=wrap;rounded=0;" vertex="1" parent="1">
          <mxGeometry x="450" y="50" width="60" height="30" as="geometry" />
        </mxCell>
        <mxCell id="6DLj1aJMSQT2oyNz9FNp-18" value="" style="edgeStyle=orthogonalEdgeStyle;rounded=0;orthogonalLoop=1;jettySize=auto;html=1;exitX=0.5;exitY=1;exitDx=0;exitDy=0;" edge="1" parent="1" target="6DLj1aJMSQT2oyNz9FNp-19" source="6DLj1aJMSQT2oyNz9FNp-3">
          <mxGeometry relative="1" as="geometry">
            <mxPoint x="420" y="120" as="sourcePoint" />
          </mxGeometry>
        </mxCell>
        <mxCell id="6DLj1aJMSQT2oyNz9FNp-19" value="return true" style="shape=parallelogram;perimeter=parallelogramPerimeter;whiteSpace=wrap;html=1;fixedSize=1;" vertex="1" parent="1">
          <mxGeometry x="510" y="220" width="120" height="60" as="geometry" />
        </mxCell>
        <mxCell id="6DLj1aJMSQT2oyNz9FNp-20" value="false" style="text;html=1;strokeColor=none;fillColor=none;align=center;verticalAlign=middle;whiteSpace=wrap;rounded=0;" vertex="1" parent="1">
          <mxGeometry x="440" y="140" width="60" height="30" as="geometry" />
        </mxCell>
        <mxCell id="6DLj1aJMSQT2oyNz9FNp-24" value="" style="edgeStyle=orthogonalEdgeStyle;rounded=0;orthogonalLoop=1;jettySize=auto;html=1;" edge="1" parent="1" source="6DLj1aJMSQT2oyNz9FNp-21">
          <mxGeometry relative="1" as="geometry">
            <mxPoint x="430" y="400" as="targetPoint" />
          </mxGeometry>
        </mxCell>
        <mxCell id="6DLj1aJMSQT2oyNz9FNp-21" value="intput arr1[...]&lt;br&gt;arr2[...]" style="shape=parallelogram;perimeter=parallelogramPerimeter;whiteSpace=wrap;html=1;fixedSize=1;" vertex="1" parent="1">
          <mxGeometry x="210" y="370" width="120" height="60" as="geometry" />
        </mxCell>
        <mxCell id="6DLj1aJMSQT2oyNz9FNp-27" value="" style="edgeStyle=orthogonalEdgeStyle;rounded=0;orthogonalLoop=1;jettySize=auto;html=1;" edge="1" parent="1" source="6DLj1aJMSQT2oyNz9FNp-25" target="6DLj1aJMSQT2oyNz9FNp-26">
          <mxGeometry relative="1" as="geometry" />
        </mxCell>
        <mxCell id="6DLj1aJMSQT2oyNz9FNp-29" style="edgeStyle=orthogonalEdgeStyle;rounded=0;orthogonalLoop=1;jettySize=auto;html=1;entryX=0.5;entryY=0;entryDx=0;entryDy=0;" edge="1" parent="1" source="6DLj1aJMSQT2oyNz9FNp-25" target="6DLj1aJMSQT2oyNz9FNp-28">
          <mxGeometry relative="1" as="geometry" />
        </mxCell>
        <mxCell id="6DLj1aJMSQT2oyNz9FNp-25" value="n = sizeof arr1 / sizeof(int)&lt;br&gt;m = sizeof arr2 / sizeof(int)" style="rounded=0;whiteSpace=wrap;html=1;" vertex="1" parent="1">
          <mxGeometry x="430" y="370" width="260" height="60" as="geometry" />
        </mxCell>
        <mxCell id="6DLj1aJMSQT2oyNz9FNp-31" value="" style="edgeStyle=orthogonalEdgeStyle;rounded=0;orthogonalLoop=1;jettySize=auto;html=1;" edge="1" parent="1" source="6DLj1aJMSQT2oyNz9FNp-26" target="6DLj1aJMSQT2oyNz9FNp-30">
          <mxGeometry relative="1" as="geometry" />
        </mxCell>
        <mxCell id="6DLj1aJMSQT2oyNz9FNp-33" style="edgeStyle=orthogonalEdgeStyle;rounded=0;orthogonalLoop=1;jettySize=auto;html=1;entryX=0;entryY=0.5;entryDx=0;entryDy=0;" edge="1" parent="1" source="6DLj1aJMSQT2oyNz9FNp-26" target="6DLj1aJMSQT2oyNz9FNp-32">
          <mxGeometry relative="1" as="geometry">
            <Array as="points">
              <mxPoint x="1000" y="310" />
              <mxPoint x="1000" y="340" />
            </Array>
          </mxGeometry>
        </mxCell>
        <mxCell id="6DLj1aJMSQT2oyNz9FNp-26" value="check(arr1,n)" style="rhombus;whiteSpace=wrap;html=1;rounded=0;" vertex="1" parent="1">
          <mxGeometry x="860" y="270" width="80" height="80" as="geometry" />
        </mxCell>
        <mxCell id="6DLj1aJMSQT2oyNz9FNp-36" style="edgeStyle=orthogonalEdgeStyle;rounded=0;orthogonalLoop=1;jettySize=auto;html=1;entryX=0;entryY=0.5;entryDx=0;entryDy=0;" edge="1" parent="1" source="6DLj1aJMSQT2oyNz9FNp-28" target="6DLj1aJMSQT2oyNz9FNp-34">
          <mxGeometry relative="1" as="geometry" />
        </mxCell>
        <mxCell id="6DLj1aJMSQT2oyNz9FNp-37" style="edgeStyle=orthogonalEdgeStyle;rounded=0;orthogonalLoop=1;jettySize=auto;html=1;entryX=0;entryY=0.5;entryDx=0;entryDy=0;" edge="1" parent="1" source="6DLj1aJMSQT2oyNz9FNp-28" target="6DLj1aJMSQT2oyNz9FNp-35">
          <mxGeometry relative="1" as="geometry" />
        </mxCell>
        <mxCell id="6DLj1aJMSQT2oyNz9FNp-28" value="check(arr2,m)" style="rhombus;whiteSpace=wrap;html=1;" vertex="1" parent="1">
          <mxGeometry x="860" y="440" width="80" height="80" as="geometry" />
        </mxCell>
        <mxCell id="6DLj1aJMSQT2oyNz9FNp-30" value="la mang doi xung" style="shape=parallelogram;perimeter=parallelogramPerimeter;whiteSpace=wrap;html=1;fixedSize=1;rounded=0;" vertex="1" parent="1">
          <mxGeometry x="1050" y="210" width="120" height="60" as="geometry" />
        </mxCell>
        <mxCell id="6DLj1aJMSQT2oyNz9FNp-32" value="khong phai mang doi xung" style="shape=parallelogram;perimeter=parallelogramPerimeter;whiteSpace=wrap;html=1;fixedSize=1;" vertex="1" parent="1">
          <mxGeometry x="1040" y="310" width="120" height="60" as="geometry" />
        </mxCell>
        <mxCell id="6DLj1aJMSQT2oyNz9FNp-34" value="la mang doi xung" style="shape=parallelogram;perimeter=parallelogramPerimeter;whiteSpace=wrap;html=1;fixedSize=1;rounded=0;" vertex="1" parent="1">
          <mxGeometry x="1030" y="410" width="120" height="60" as="geometry" />
        </mxCell>
        <mxCell id="6DLj1aJMSQT2oyNz9FNp-35" value="khong phai mang doi xung" style="shape=parallelogram;perimeter=parallelogramPerimeter;whiteSpace=wrap;html=1;fixedSize=1;" vertex="1" parent="1">
          <mxGeometry x="1020" y="510" width="120" height="60" as="geometry" />
        </mxCell>
        <mxCell id="6DLj1aJMSQT2oyNz9FNp-38" value="true" style="text;html=1;strokeColor=none;fillColor=none;align=center;verticalAlign=middle;whiteSpace=wrap;rounded=0;" vertex="1" parent="1">
          <mxGeometry x="1000" y="210" width="60" height="30" as="geometry" />
        </mxCell>
        <mxCell id="6DLj1aJMSQT2oyNz9FNp-39" value="false" style="text;html=1;strokeColor=none;fillColor=none;align=center;verticalAlign=middle;whiteSpace=wrap;rounded=0;" vertex="1" parent="1">
          <mxGeometry x="990" y="340" width="60" height="30" as="geometry" />
        </mxCell>
        <mxCell id="6DLj1aJMSQT2oyNz9FNp-40" value="true" style="text;html=1;strokeColor=none;fillColor=none;align=center;verticalAlign=middle;whiteSpace=wrap;rounded=0;" vertex="1" parent="1">
          <mxGeometry x="980" y="410" width="60" height="30" as="geometry" />
        </mxCell>
        <mxCell id="6DLj1aJMSQT2oyNz9FNp-41" value="false" style="text;html=1;strokeColor=none;fillColor=none;align=center;verticalAlign=middle;whiteSpace=wrap;rounded=0;" vertex="1" parent="1">
          <mxGeometry x="970" y="540" width="60" height="30" as="geometry" />
        </mxCell>
      </root>
    </mxGraphModel>
  </diagram>
</mxfile>
